<svg xmlns="http://www.w3.org/2000/svg" width="905" height="20"><g fill="none" fill-rule="nonzero"><rect width="14" height="20" fill="#F6F7F7"/><rect width="14" height="20" x="14" fill="#F0F0F1"/><rect width="14" height="20" x="28" fill="#DCDCDE"/><rect width="14" height="20" x="42" fill="#C3C4C7"/><rect width="14" height="20" x="56" fill="#A7AAAD"/><rect width="14" height="20" x="70" fill="#8C8F93"/><rect width="14" height="20" x="84" fill="#797C81"/><rect width="14" height="20" x="98" fill="#65696F"/><rect width="14" height="20" x="112" fill="#51575D"/><rect width="14" height="20" x="126" fill="#3D4349"/><rect width="14" height="20" x="140" fill="#2D3337"/><rect width="14" height="20" x="154" fill="#1E2327"/><rect width="13" height="20" x="168" fill="#111517"/><rect width="15" height="20" x="181" fill="#F1F6FB"/><rect width="15" height="20" x="226" fill="#7EADE1"/><rect width="15" height="20" x="271" fill="#3971AC"/><rect width="15" height="20" x="316" fill="#153956"/><rect width="15" height="20" x="196" fill="#C8D9EB"/><rect width="15" height="20" x="241" fill="#5F93CF"/><rect width="15" height="20" x="286" fill="#2B5E92"/><rect width="15" height="20" x="331" fill="#0B2638"/><rect width="15" height="20" x="211" fill="#A5C1E3"/><rect width="15" height="20" x="256" fill="#4981BF"/><rect width="15" height="20" x="301" fill="#1F4B74"/><rect width="16" height="20" x="346" fill="#04131B"/><rect width="15" height="20" x="362" fill="#FAF0F1"/><rect width="15" height="20" x="407" fill="#EF8788"/><rect width="15" height="20" x="452" fill="#C6443F"/><rect width="15" height="20" x="497" fill="#61221F"/><rect width="15" height="20" x="377" fill="#F3D1D3"/><rect width="15" height="20" x="422" fill="#E76C6C"/><rect width="15" height="20" x="467" fill="#A53834"/><rect width="15" height="20" x="512" fill="#3F1615"/><rect width="15" height="20" x="392" fill="#F3AFB0"/><rect width="15" height="20" x="437" fill="#D55A59"/><rect width="15" height="20" x="482" fill="#7F2C28"/><rect width="16" height="20" x="527" fill="#210C0B"/><rect width="15" height="20" x="543" fill="#FCF9EA"/><rect width="15" height="20" x="588" fill="#E9C457"/><rect width="15" height="20" x="633" fill="#926921"/><rect width="15" height="20" x="678" fill="#47330B"/><rect width="15" height="20" x="558" fill="#F3E6B2"/><rect width="15" height="20" x="603" fill="#D3A73E"/><rect width="15" height="20" x="648" fill="#705218"/><rect width="15" height="20" x="693" fill="#332406"/><rect width="15" height="20" x="573" fill="#EED683"/><rect width="15" height="20" x="618" fill="#B5872D"/><rect width="15" height="20" x="663" fill="#5D4312"/><rect width="16" height="20" x="708" fill="#1F1603"/><rect width="15" height="20" x="724" fill="#EFF9F0"/><rect width="15" height="20" x="769" fill="#62CB5C"/><rect width="15" height="20" x="814" fill="#3C8632"/><rect width="15" height="20" x="859" fill="#1A4315"/><rect width="15" height="20" x="739" fill="#C1E4C2"/><rect width="15" height="20" x="784" fill="#53B64B"/><rect width="15" height="20" x="829" fill="#2F6D26"/><rect width="15" height="20" x="874" fill="#102F0E"/><rect width="15" height="20" x="754" fill="#87DA86"/><rect width="15" height="20" x="799" fill="#48A03E"/><rect width="15" height="20" x="844" fill="#265A1E"/><rect width="16" height="20" x="889" fill="#071B07"/></g></svg>