<svg xmlns="http://www.w3.org/2000/svg" width="181" height="100"><rect width="14" height="20" fill="#F6F7F7"/><rect width="14" height="20" x="14" fill="#F0F0F1"/><rect width="14" height="20" x="28" fill="#DCDCDE"/><rect width="14" height="20" x="42" fill="#C3C4C7"/><rect width="14" height="20" x="56" fill="#A7AAAD"/><rect width="14" height="20" x="70" fill="#8C8F93"/><rect width="14" height="20" x="84" fill="#797C81"/><rect width="14" height="20" x="98" fill="#65696F"/><rect width="14" height="20" x="112" fill="#51575D"/><rect width="14" height="20" x="126" fill="#3D4349"/><rect width="14" height="20" x="140" fill="#2D3337"/><rect width="14" height="20" x="154" fill="#1E2327"/><rect width="13" height="20" x="168" fill="#111517"/><rect width="15" height="20" y="20" fill="#F1F6FB"/><rect width="15" height="20" x="45" y="20" fill="#7EADE1"/><rect width="15" height="20" x="90" y="20" fill="#3971AC"/><rect width="15" height="20" x="135" y="20" fill="#153956"/><rect width="15" height="20" x="15" y="20" fill="#C8D9EB"/><rect width="15" height="20" x="60" y="20" fill="#5F93CF"/><rect width="15" height="20" x="105" y="20" fill="#2B5E92"/><rect width="15" height="20" x="150" y="20" fill="#0B2638"/><rect width="15" height="20" x="30" y="20" fill="#A5C1E3"/><rect width="15" height="20" x="75" y="20" fill="#4981BF"/><rect width="15" height="20" x="120" y="20" fill="#1F4B74"/><rect width="16" height="20" x="165" y="20" fill="#04131B"/><rect width="15" height="20" y="40" fill="#FAF0F1"/><rect width="15" height="20" x="45" y="40" fill="#EF8788"/><rect width="15" height="20" x="90" y="40" fill="#C6443F"/><rect width="15" height="20" x="135" y="40" fill="#61221F"/><rect width="15" height="20" x="15" y="40" fill="#F3D1D3"/><rect width="15" height="20" x="60" y="40" fill="#E76C6C"/><rect width="15" height="20" x="105" y="40" fill="#A53834"/><rect width="15" height="20" x="150" y="40" fill="#3F1615"/><rect width="15" height="20" x="30" y="40" fill="#F3AFB0"/><rect width="15" height="20" x="75" y="40" fill="#D55A59"/><rect width="15" height="20" x="120" y="40" fill="#7F2C28"/><rect width="16" height="20" x="165" y="40" fill="#210C0B"/><rect width="15" height="20" y="60" fill="#FCF9EA"/><rect width="15" height="20" x="45" y="60" fill="#E9C457"/><rect width="15" height="20" x="90" y="60" fill="#926921"/><rect width="15" height="20" x="135" y="60" fill="#47330B"/><rect width="15" height="20" x="15" y="60" fill="#F3E6B2"/><rect width="15" height="20" x="60" y="60" fill="#D3A73E"/><rect width="15" height="20" x="105" y="60" fill="#705218"/><rect width="15" height="20" x="150" y="60" fill="#332406"/><rect width="15" height="20" x="30" y="60" fill="#EED683"/><rect width="15" height="20" x="75" y="60" fill="#B5872D"/><rect width="15" height="20" x="120" y="60" fill="#5D4312"/><rect width="16" height="20" x="165" y="60" fill="#1F1603"/><rect width="15" height="20" y="80" fill="#EFF9F0"/><rect width="15" height="20" x="45" y="80" fill="#62CB5C"/><rect width="15" height="20" x="90" y="80" fill="#3C8632"/><rect width="15" height="20" x="135" y="80" fill="#1A4315"/><rect width="15" height="20" x="15" y="80" fill="#C1E4C2"/><rect width="15" height="20" x="60" y="80" fill="#53B64B"/><rect width="15" height="20" x="105" y="80" fill="#2F6D26"/><rect width="15" height="20" x="150" y="80" fill="#102F0E"/><rect width="15" height="20" x="30" y="80" fill="#87DA86"/><rect width="15" height="20" x="75" y="80" fill="#48A03E"/><rect width="15" height="20" x="120" y="80" fill="#265A1E"/><rect width="16" height="20" x="165" y="80" fill="#071B07"/></svg>