<svg xmlns="http://www.w3.org/2000/svg" width="100" height="100" viewBox="0 0 512 512"><style>path{fill:#000}@media (prefers-color-scheme:dark){path{fill:#fff}}</style><path d="M346 86c16-16 41-26 60-26 12 0 26 4 39 10a105 105 0 00-197 0c12-6 26-10 38-10 19 0 44 10 60 26zm0 0M406 91c-19 0-45 16-45 30v15h-30v-15c0-14-26-30-45-30s-44 15-45 27v18a105 105 0 00210 0v-19c-2-12-27-26-45-26zm0 0M474 62c5 14 8 28 8 44 0 45 0 25-1 43a45 45 0 00-7-87zm0 0M212 149c-1-18-1 2-1-43 0-16 3-30 8-44-21 3-38 22-38 44 0 20 13 37 31 43zm0 0"/><path d="M213 151c-56 35-92 97-92 165v135h-15c-8 0-15-7-15-15V136c0-25-20-45-45-45H0v30h46c8 0 15 7 15 15v300c0 25 20 45 45 45h15v31h270v-16c0-25-20-45-45-45h-15v-15c0-41-34-75-75-75h-45v-30h45l15 1v-31h30v41c11 5 21 12 30 21v-62h30v122c34 7 60 37 60 73V248a134 134 0 01-208-97zm0 0"/></svg>